# xmcd
#
# Track frame offsets:
#	151
#	13894
#	29111
#
# Disc length: 630 seconds
#
# Revision: 0
# Processed by: cddbd v1.4PL0 Copyright (c) Steve Scherf et al.
# Submitted via: dBpowerAMP V4.0
#
DISCID=23027403
DTITLE=Wes Terry - Wes Terry
DYEAR=2000
DGENRE=
TTITLE0=I Think I'll Stay
TTITLE1=Broken
TTITLE2=Forgot How To Love
EXTD=
EXTT0=
EXTT1=
EXTT2=
PLAYORDER=
